<?xml version="1.0" standalone="no"?>
<!DOCTYPE svg PUBLIC "-//W3C//DTD SVG 20010904//EN"
 "http://www.w3.org/TR/2001/REC-SVG-20010904/DTD/svg10.dtd">
<svg version="1.0" xmlns="http://www.w3.org/2000/svg"
 width="600.000000pt" height="400.000000pt" viewBox="0 0 600.000000 400.000000"
 preserveAspectRatio="xMidYMid meet">

<g transform="translate(0.000000,400.000000) scale(0.100000,-0.100000)"
fill="#000000" stroke="none">
<path d="M2662 3180 c-304 -124 -543 -374 -655 -685 -14 -39 -25 -86 -25 -105
-1 -19 -5 -66 -11 -105 -10 -68 -13 -198 -4 -162 2 9 11 17 19 17 8 0 12 -4 9
-10 -3 -5 0 -10 9 -10 8 0 19 12 25 28 10 26 10 26 6 -8 -19 -143 -9 -303 31
-510 24 -123 31 -141 73 -205 61 -93 207 -239 305 -305 67 -44 205 -116 306
-157 22 -9 16 -11 -45 -17 -250 -25 -250 -54 0 -75 238 -21 809 -10 911 18 15
4 29 12 31 18 5 13 -74 31 -152 36 l-50 3 55 27 c30 15 48 26 39 23 -9 -2 -65
0 -125 6 -139 13 -137 13 -151 21 -6 4 -18 4 -27 1 -9 -3 -16 -1 -16 5 0 6 -9
11 -20 11 -28 0 -26 6 20 51 44 43 49 58 23 61 -10 0 38 4 107 9 147 8 246 28
389 75 101 34 275 113 267 122 -3 2 -51 -1 -108 -7 -288 -32 -539 -23 -728 25
-164 43 -320 131 -397 225 -15 19 -19 27 -8 18 110 -90 152 -118 230 -156 156
-75 376 -117 580 -111 83 2 99 6 97 18 -7 29 -14 65 -17 88 -1 12 -5 26 -9 29
-3 3 34 19 84 35 86 28 89 30 80 52 -5 13 -6 27 -3 30 4 3 1 6 -6 6 -7 0 -10
4 -7 8 6 9 -18 124 -37 180 -10 30 -11 43 -3 47 6 3 -14 3 -45 1 -77 -6 -110
-25 -209 -121 -118 -114 -186 -146 -351 -165 -118 -14 -174 1 -280 72 -100 67
-154 125 -203 218 -85 164 -78 353 19 515 93 154 232 235 403 235 136 0 251
-45 411 -159 53 -38 125 -81 161 -97 118 -52 259 -34 331 42 l20 22 -22 43
c-35 70 -107 178 -166 252 -53 64 -79 85 -67 52 4 -8 1 -15 -5 -15 -6 0 -11
-9 -11 -20 0 -11 -4 -28 -9 -38 -27 -50 -49 -100 -55 -126 -4 -17 -16 -42 -27
-58 -11 -15 -19 -36 -18 -45 6 -61 -4 -62 -22 -3 -27 92 -92 224 -131 264 -18
19 -64 67 -103 106 -148 154 -344 249 -542 267 -71 6 -103 23 -44 23 16 0 37
8 47 18 17 16 14 17 -67 22 -71 4 -81 7 -64 17 11 7 16 13 10 13 -5 0 1 7 15
15 41 23 10 16 -68 -15z m208 -571 c-215 -16 -391 -86 -525 -211 -87 -81 -134
-143 -193 -253 -24 -44 -40 -69 -36 -55 26 100 151 276 252 355 149 118 313
173 507 173 l110 -1 -115 -8z"/>
<path d="M3288 1143 c6 -2 18 -2 25 0 6 3 1 5 -13 5 -14 0 -19 -2 -12 -5z"/>
</g>
</svg>
